<?xml version="1.0" encoding="UTF-8"?>
<svg version="1.1" xmlns="http://www.w3.org/2000/svg" width="48" height="48">
<path d="M0 0 C15.84 0 31.68 0 48 0 C48 15.84 48 31.68 48 48 C32.16 48 16.32 48 0 48 C0 32.16 0 16.32 0 0 Z " fill="#A1E335" transform="translate(0,0)"/>
<path d="M0 0 C2.701875 -0.04125 5.40375 -0.0825 8.1875 -0.125 C9.02949951 -0.14320801 9.87149902 -0.16141602 10.73901367 -0.18017578 C14.90863523 -0.210904 18.25674996 -0.07877575 22 2 C23.74476158 5.48952316 23.4048029 9.54270956 22.375 13.25 C22.25125 13.8275 22.1275 14.405 22 15 C22.99 16.485 22.99 16.485 24 18 C24.67092652 24.15015974 24.67092652 24.15015974 22.125 27.375 C19.14039938 29.65734165 17.5571658 30.12364201 13.8671875 30.09765625 C13.14128418 30.09515869 12.41538086 30.09266113 11.66748047 30.09008789 C10.74596191 30.08098389 9.82444336 30.07187988 8.875 30.0625 C5.94625 30.041875 3.0175 30.02125 0 30 C0 20.1 0 10.2 0 0 Z " fill="#0A0E03" transform="translate(12,9)"/>
<path d="M0 0 C1.95803507 -0.05389087 3.91648909 -0.09274217 5.875 -0.125 C7.51082031 -0.15980469 7.51082031 -0.15980469 9.1796875 -0.1953125 C12 0 12 0 14 2 C14.1875 4.5625 14.1875 4.5625 14 7 C13 8 13 8 10.05859375 8.09765625 C8.26615234 8.08025391 8.26615234 8.08025391 6.4375 8.0625 C4.64119141 8.04896484 4.64119141 8.04896484 2.80859375 8.03515625 C1.88175781 8.02355469 0.95492188 8.01195312 0 8 C0 5.36 0 2.72 0 0 Z " fill="#9BDC33" transform="translate(17,26)"/>
<path d="M0 0 C1.97909398 -0.02686553 3.95828971 -0.04633375 5.9375 -0.0625 C7.03964844 -0.07410156 8.14179688 -0.08570313 9.27734375 -0.09765625 C12 0 12 0 13 1 C13.125 3.5 13.125 3.5 13 6 C12 7 12 7 9.27734375 7.09765625 C7.62412109 7.08025391 7.62412109 7.08025391 5.9375 7.0625 C4.83277344 7.05347656 3.72804688 7.04445313 2.58984375 7.03515625 C1.30787109 7.01775391 1.30787109 7.01775391 0 7 C0 4.69 0 2.38 0 0 Z " fill="#9DDE34" transform="translate(17,14)"/>
</svg>
